HIERARCHY
ROOT Hips
{
  OFFSET 0.0000 94.0000 0.0000
  CHANNELS 6 Xposition Yposition Zposition Yrotation Xrotation Zrotation
  JOINT Spine1
  {
    OFFSET 0.0000 8.4839 -3.9483
    CHANNELS 3 Yrotation Xrotation Zrotation
    JOINT Spine2
    {
      OFFSET 0.0000 -7.5932 0.0000
      CHANNELS 3 Yrotation Xrotation Zrotation
      JOINT Spine3
      {
        OFFSET 0.0000 -7.5932 0.0000
        CHANNELS 3 Yrotation Xrotation Zrotation
        JOINT Spine4
        {
          OFFSET 0.0000 -12.8217 0.0000
          CHANNELS 3 Yrotation Xrotation Zrotation
          JOINT Neck
          {
            OFFSET 0.0000 -20.2657 0.0000
            CHANNELS 3 Yrotation Xrotation Zrotation
            JOINT Head
            {
              OFFSET 0.0000 -10.9846 0.0000
              CHANNELS 3 Yrotation Xrotation Zrotation
              JOINT HeadTip
              {
                OFFSET 0.0000 -16.6770 0.0000
                CHANNELS 3 Yrotation Xrotation Zrotation
                End Site
                {
                  OFFSET 0.0000 -8.3385 0.0000
                }
              }
            }
          }
          JOINT RightShoulder
          {
            OFFSET 7.0401 -12.4389 1.9147
            CHANNELS 3 Yrotation Xrotation Zrotation
            JOINT RightArm
            {
              OFFSET 0.0000 -13.4599 0.0000
              CHANNELS 3 Yrotation Xrotation Zrotation
              JOINT RightForeArm
              {
                OFFSET 0.0000 -26.1001 0.0000
                CHANNELS 3 Yrotation Xrotation Zrotation
                JOINT RightHand
                {
                  OFFSET 0.0000 -28.9001 0.0000
                  CHANNELS 3 Yrotation Xrotation Zrotation
                  JOINT RightFinger1Metacarpal
                  {
                    OFFSET -2.7863 -2.0791 0.1030
                    CHANNELS 3 Yrotation Xrotation Zrotation
                    JOINT RightFinger1Proximal
                    {
                      OFFSET 0.0000 -3.9619 0.0000
                      CHANNELS 3 Yrotation Xrotation Zrotation
                      JOINT RightFinger1Distal
                      {
                        OFFSET 0.0000 -3.0071 0.0000
                        CHANNELS 3 Yrotation Xrotation Zrotation
                        JOINT RightFinger1Tip
                        {
                          OFFSET 0.0000 -3.4354 0.0000
                          CHANNELS 3 Yrotation Xrotation Zrotation
                          End Site
                          {
                            OFFSET 0.0000 -1.7177 0.0000
                          }
                        }
                      }
                    }
                  }
                  JOINT RightFinger5Metacarpal
                  {
                    OFFSET 1.4884 -2.4891 0.1030
                    CHANNELS 3 Yrotation Xrotation Zrotation
                    JOINT RightFinger5Proximal
                    {
                      OFFSET 0.0000 -4.8196 0.0000
                      CHANNELS 3 Yrotation Xrotation Zrotation
                      JOINT RightFinger5Medial
                      {
                        OFFSET 0.0000 -3.5541 0.0000
                        CHANNELS 3 Yrotation Xrotation Zrotation
                        JOINT RightFinger5Distal
                        {
                          OFFSET 0.0000 -2.2340 0.0000
                          CHANNELS 3 Yrotation Xrotation Zrotation
                          JOINT RightFinger5Tip
                          {
                            OFFSET 0.0000 -2.2755 0.0000
                            CHANNELS 3 Yrotation Xrotation Zrotation
                            End Site
                            {
                              OFFSET 0.0000 -1.1378 0.0000
                            }
                          }
                        }
                      }
                    }
                  }
                  JOINT RightFinger4Metacarpal
                  {
                    OFFSET 0.5478 -2.7444 0.1030
                    CHANNELS 3 Yrotation Xrotation Zrotation
                    JOINT RightFinger4Proximal
                    {
                      OFFSET 0.0000 -5.1405 0.0000
                      CHANNELS 3 Yrotation Xrotation Zrotation
                      JOINT RightFinger4Medial
                      {
                        OFFSET 0.0000 -4.3922 0.0000
                        CHANNELS 3 Yrotation Xrotation Zrotation
                        JOINT RightFinger4Distal
                        {
                          OFFSET 0.0000 -2.8327 0.0000
                          CHANNELS 3 Yrotation Xrotation Zrotation
                          JOINT RightFinger4Tip
                          {
                            OFFSET 0.0000 -2.7579 0.0000
                            CHANNELS 3 Yrotation Xrotation Zrotation
                            End Site
                            {
                              OFFSET 0.0000 -1.3790 0.0000
                            }
                          }
                        }
                      }
                    }
                  }
                  JOINT RightFinger3Metacarpal
                  {
                    OFFSET -0.5450 -2.7688 0.1030
                    CHANNELS 3 Yrotation Xrotation Zrotation
                    JOINT RightFinger3Proximal
                    {
                      OFFSET 0.0000 -5.3677 0.0000
                      CHANNELS 3 Yrotation Xrotation Zrotation
                      JOINT RightFinger3Medial
                      {
                        OFFSET 0.0000 -4.7024 0.0000
                        CHANNELS 3 Yrotation Xrotation Zrotation
                        JOINT RightFinger3Distal
                        {
                          OFFSET 0.0000 -3.1016 0.0000
                          CHANNELS 3 Yrotation Xrotation Zrotation
                          JOINT RightFinger3Tip
                          {
                            OFFSET 0.0000 -2.9998 0.0000
                            CHANNELS 3 Yrotation Xrotation Zrotation
                            End Site
                            {
                              OFFSET 0.0000 -1.4999 0.0000
                            }
                          }
                        }
                      }
                    }
                  }
                  JOINT RightFinger2Metacarpal
                  {
                    OFFSET -1.6042 -2.6469 0.1031
                    CHANNELS 3 Yrotation Xrotation Zrotation
                    JOINT RightFinger2Proximal
                    {
                      OFFSET 0.0000 -5.5108 0.0000
                      CHANNELS 3 Yrotation Xrotation Zrotation
                      JOINT RightFinger2Medial
                      {
                        OFFSET 0.0000 -4.5805 0.0000
                        CHANNELS 3 Yrotation Xrotation Zrotation
                        JOINT RightFinger2Distal
                        {
                          OFFSET 0.0000 -2.8181 0.0000
                          CHANNELS 3 Yrotation Xrotation Zrotation
                          JOINT RightFinger2Tip
                          {
                            OFFSET 0.0000 -2.7617 0.0000
                            CHANNELS 3 Yrotation Xrotation Zrotation
                            End Site
                            {
                              OFFSET 0.0000 -1.3809 0.0000
                            }
                          }
                        }
                      }
                    }
                  }
                }
              }
            }
          }
          JOINT LeftShoulder
          {
            OFFSET -7.0401 -12.4389 1.9147
            CHANNELS 3 Yrotation Xrotation Zrotation
            JOINT LeftArm
            {
              OFFSET 0.0000 -13.4599 0.0000
              CHANNELS 3 Yrotation Xrotation Zrotation
              JOINT LeftForeArm
              {
                OFFSET 0.0001 -26.1001 0.0000
                CHANNELS 3 Yrotation Xrotation Zrotation
                JOINT LeftHand
                {
                  OFFSET -0.0001 -28.9001 0.0000
                  CHANNELS 3 Yrotation Xrotation Zrotation
                  JOINT LeftFinger5Metacarpal
                  {
                    OFFSET -1.4884 -2.4891 0.1030
                    CHANNELS 3 Yrotation Xrotation Zrotation
                    JOINT LeftFinger5Proximal
                    {
                      OFFSET 0.0000 -4.8196 0.0000
                      CHANNELS 3 Yrotation Xrotation Zrotation
                      JOINT LeftFinger5Medial
                      {
                        OFFSET 0.0000 -3.5541 0.0000
                        CHANNELS 3 Yrotation Xrotation Zrotation
                        JOINT LeftFinger5Distal
                        {
                          OFFSET 0.0000 -2.2340 0.0000
                          CHANNELS 3 Yrotation Xrotation Zrotation
                          JOINT LeftFinger5Tip
                          {
                            OFFSET 0.0000 -2.2755 0.0000
                            CHANNELS 3 Yrotation Xrotation Zrotation
                            End Site
                            {
                              OFFSET 0.0000 -1.1378 0.0000
                            }
                          }
                        }
                      }
                    }
                  }
                  JOINT LeftFinger4Metacarpal
                  {
                    OFFSET -0.5478 -2.7444 0.1030
                    CHANNELS 3 Yrotation Xrotation Zrotation
                    JOINT LeftFinger4Proximal
                    {
                      OFFSET 0.0000 -5.1405 0.0000
                      CHANNELS 3 Yrotation Xrotation Zrotation
                      JOINT LeftFinger4Medial
                      {
                        OFFSET 0.0000 -4.3922 0.0000
                        CHANNELS 3 Yrotation Xrotation Zrotation
                        JOINT LeftFinger4Distal
                        {
                          OFFSET 0.0000 -2.8327 0.0000
                          CHANNELS 3 Yrotation Xrotation Zrotation
                          JOINT LeftFinger4Tip
                          {
                            OFFSET 0.0000 -2.7579 0.0000
                            CHANNELS 3 Yrotation Xrotation Zrotation
                            End Site
                            {
                              OFFSET 0.0000 -1.3790 0.0000
                            }
                          }
                        }
                      }
                    }
                  }
                  JOINT LeftFinger3Metacarpal
                  {
                    OFFSET 0.5450 -2.7688 0.1030
                    CHANNELS 3 Yrotation Xrotation Zrotation
                    JOINT LeftFinger3Proximal
                    {
                      OFFSET 0.0000 -5.3677 0.0000
                      CHANNELS 3 Yrotation Xrotation Zrotation
                      JOINT LeftFinger3Medial
                      {
                        OFFSET 0.0000 -4.7024 0.0000
                        CHANNELS 3 Yrotation Xrotation Zrotation
                        JOINT LeftFinger3Distal
                        {
                          OFFSET 0.0000 -3.1016 0.0000
                          CHANNELS 3 Yrotation Xrotation Zrotation
                          JOINT LeftFinger3Tip
                          {
                            OFFSET 0.0000 -2.9998 0.0000
                            CHANNELS 3 Yrotation Xrotation Zrotation
                            End Site
                            {
                              OFFSET 0.0000 -1.4999 0.0000
                            }
                          }
                        }
                      }
                    }
                  }
                  JOINT LeftFinger2Metacarpal
                  {
                    OFFSET 1.6042 -2.6469 0.1030
                    CHANNELS 3 Yrotation Xrotation Zrotation
                    JOINT LeftFinger2Proximal
                    {
                      OFFSET 0.0000 -5.5107 0.0000
                      CHANNELS 3 Yrotation Xrotation Zrotation
                      JOINT LeftFinger2Medial
                      {
                        OFFSET 0.0000 -4.5805 0.0000
                        CHANNELS 3 Yrotation Xrotation Zrotation
                        JOINT LeftFinger2Distal
                        {
                          OFFSET 0.0000 -2.8181 0.0000
                          CHANNELS 3 Yrotation Xrotation Zrotation
                          JOINT LeftFinger2Tip
                          {
                            OFFSET 0.0000 -2.7617 0.0000
                            CHANNELS 3 Yrotation Xrotation Zrotation
                            End Site
                            {
                              OFFSET 0.0000 -1.3809 0.0000
                            }
                          }
                        }
                      }
                    }
                  }
                  JOINT LeftFinger1Metacarpal
                  {
                    OFFSET 2.7863 -2.0791 0.1030
                    CHANNELS 3 Yrotation Xrotation Zrotation
                    JOINT LeftFinger1Proximal
                    {
                      OFFSET 0.0000 -3.9619 0.0000
                      CHANNELS 3 Yrotation Xrotation Zrotation
                      JOINT LeftFinger1Distal
                      {
                        OFFSET 0.0000 -3.0072 0.0000
                        CHANNELS 3 Yrotation Xrotation Zrotation
                        JOINT LeftFinger1Tip
                        {
                          OFFSET 0.0000 -3.4354 0.0000
                          CHANNELS 3 Yrotation Xrotation Zrotation
                          End Site
                          {
                            OFFSET 0.0000 -1.7177 0.0000
                          }
                        }
                      }
                    }
                  }
                }
              }
            }
          }
        }
      }
    }
  }
  JOINT RightThigh
  {
    OFFSET -8.1000 0.0000 0.0000
    CHANNELS 3 Yrotation Xrotation Zrotation
    JOINT RightShin
    {
      OFFSET 0.0000 -43.2000 0.0000
      CHANNELS 3 Yrotation Xrotation Zrotation
      JOINT RightFoot
      {
        OFFSET 0.0000 -43.3000 -0.0626
        CHANNELS 3 Yrotation Xrotation Zrotation
        JOINT RightToe
        {
          OFFSET 0.0000 -13.1694 6.2394
          CHANNELS 3 Yrotation Xrotation Zrotation
          JOINT RightToeTip
          {
            OFFSET 0.0000 -7.4457 1.2571
            CHANNELS 3 Yrotation Xrotation Zrotation
            End Site
            {
              OFFSET 0.0000 -3.7228 0.6286
            }
          }
        }
      }
    }
  }
  JOINT LeftThigh
  {
    OFFSET 8.1000 0.0000 0.0000
    CHANNELS 3 Yrotation Xrotation Zrotation
    JOINT LeftShin
    {
      OFFSET 0.0000 -43.2000 0.0000
      CHANNELS 3 Yrotation Xrotation Zrotation
      JOINT LeftFoot
      {
        OFFSET 0.0000 -43.3000 -0.0626
        CHANNELS 3 Yrotation Xrotation Zrotation
        JOINT LeftToe
        {
          OFFSET 0.0000 -13.1694 6.2394
          CHANNELS 3 Yrotation Xrotation Zrotation
          JOINT LeftToeTip
          {
            OFFSET 0.0000 -7.4457 1.2571
            CHANNELS 3 Yrotation Xrotation Zrotation
            End Site
            {
              OFFSET 0.0000 -3.7228 0.6286
            }
          }
        }
      }
    }
  }
}
MOTION
Frames: 4
Frame Time: 0.010000
-9.1777 96.2340 -6.3780 7.5384 3.8247 0.6650 0.0000 0.0001 180.0000 0.0000 0.0000 0.0000 0.0000 0.0000 0.0000 23.9821 0.0000 0.0000 0.0000 0.0000 0.0000 -0.4213 0.0650 0.1811 0.0000 0.0000 0.0000 0.0000 0.0000 90.0000 154.3040 -30.8019 -83.9432 0.0000 0.0000 -47.4704 0.0000 0.0000 0.0000 104.2979 28.5705 -11.4108 0.0000 -9.0000 0.0000 0.0000 -9.0000 0.0000 0.0000 0.0003 0.0000 -5.9303 -5.1186 20.5898 -10.8000 -18.0000 -9.0000 0.0000 -18.0000 0.0000 0.0000 -18.0000 0.0000 0.0000 0.0000 0.0000 -2.7258 -2.5476 10.1280 -5.4000 -18.0000 -9.0000 0.0000 -18.0000 0.0000 0.0000 -18.0000 0.0000 0.0000 0.0000 0.0000 0.0000 0.0000 0.0000 0.0000 -18.0000 -5.4000 0.0000 -18.0000 0.0000 0.0000 -18.0000 0.0000 0.0000 0.0000 0.0000 1.2310 0.2170 -9.9977 0.0000 -18.0000 1.8000 0.0000 -18.0000 0.0000 0.0000 -18.0000 0.0000 0.0000 0.0000 0.0000 0.0000 0.0000 -90.0001 176.2116 -10.0618 66.1161 0.0000 -0.0001 25.8166 0.0000 0.0000 0.0000 5.9303 -5.1186 -20.5898 10.8000 -18.0000 9.0000 0.0000 -18.0000 0.0000 0.0000 -18.0000 0.0000 0.0000 0.0000 0.0000 2.7258 -2.5476 -10.1280 5.4000 -18.0000 9.0000 0.0000 -18.0000 0.0000 0.0000 -18.0000 0.0000 0.0000 0.0000 0.0000 0.0000 0.0000 0.0000 0.0000 -18.0000 5.4000 0.0000 -18.0000 0.0000 0.0000 -18.0000 0.0000 0.0000 0.0000 0.0000 -1.2310 0.2170 9.9977 0.0000 -18.0000 -1.8000 0.0000 -18.0000 0.0000 0.0000 -18.0000 0.0000 0.0002 0.0000 0.0000 -104.2979 28.5705 11.4108 0.0000 -9.0000 0.0000 0.0000 -9.0000 0.0000 0.0000 0.0004 0.0000 69.6521 -4.0962 -5.0056 0.0025 -0.0333 13.1208 -269.1555 90.0000 0.0000 0.0000 9.9288 0.0000 0.0000 0.0000 0.0000 -90.4120 12.7951 4.0737 -0.0179 -0.0828 0.0000 -94.2318 73.2983 -4.5230 0.0000 3.5467 0.0000 0.0000 0.0000 0.0000 
-8.5554 96.2796 -6.5452 8.3785 4.0870 0.6195 0.0000 0.0001 180.0000 0.0000 0.0000 0.0000 0.0000 0.0000 0.0000 24.0883 0.0000 0.0000 0.0000 0.0000 0.0000 0.0411 0.1211 0.2621 0.0000 0.0000 0.0000 0.0000 0.0000 90.0000 154.3912 -31.6124 -83.8762 0.0000 0.0000 -46.5492 0.0000 0.0000 0.0000 104.2979 28.5705 -11.4108 0.0000 -9.0000 0.0000 0.0000 -9.0000 0.0000 0.0000 0.0003 0.0000 -5.9303 -5.1186 20.5898 -10.8000 -18.0000 -9.0000 0.0000 -18.0000 0.0000 0.0000 -18.0000 0.0000 0.0000 0.0000 0.0000 -2.7258 -2.5476 10.1280 -5.4000 -18.0000 -9.0000 0.0000 -18.0000 0.0000 0.0000 -18.0000 0.0000 0.0000 0.0000 0.0000 0.0000 0.0000 0.0000 0.0000 -18.0000 -5.4000 0.0000 -18.0000 0.0000 0.0000 -18.0000 0.0000 0.0000 0.0000 0.0000 1.2310 0.2170 -9.9977 0.0000 -18.0000 1.8000 0.0000 -18.0000 0.0000 0.0000 -18.0000 0.0000 0.0000 0.0000 0.0000 0.0000 0.0000 -90.0001 176.9597 -10.9570 65.5153 0.0000 -0.0001 27.4678 0.0000 0.0000 0.0000 5.9303 -5.1186 -20.5898 10.8000 -18.0000 9.0000 0.0000 -18.0000 0.0000 0.0000 -18.0000 0.0000 0.0000 0.0000 0.0000 2.7258 -2.5476 -10.1280 5.4000 -18.0000 9.0000 0.0000 -18.0000 0.0000 0.0000 -18.0000 0.0000 0.0000 0.0000 0.0000 0.0000 0.0000 0.0000 0.0000 -18.0000 5.4000 0.0000 -18.0000 0.0000 0.0000 -18.0000 0.0000 0.0000 0.0000 0.0000 -1.2310 0.2170 9.9977 0.0000 -18.0000 -1.8000 0.0000 -18.0000 0.0000 0.0000 -18.0000 0.0000 0.0002 0.0000 0.0000 -104.2979 28.5705 11.4108 0.0000 -9.0000 0.0000 0.0000 -9.0000 0.0000 0.0000 0.0004 0.0000 69.3810 -3.8968 -5.2298 0.0027 -0.0345 12.8159 -268.9899 90.0000 0.0000 0.0000 9.8672 0.0000 0.0000 0.0000 0.0000 -90.4169 12.3969 4.6444 -0.0179 -0.0828 0.0000 -95.1660 73.4086 -5.5155 0.0000 3.4457 0.0000 0.0000 0.0000 0.0000 
-7.8973 96.3235 -6.6925 9.1576 4.3338 0.5801 0.0000 0.0001 180.0000 0.0000 0.0000 0.0000 0.0000 0.0000 0.0000 24.1586 0.0000 0.0000 0.0000 0.0000 0.0000 0.4625 0.1589 0.3315 0.0000 0.0000 0.0000 0.0000 0.0000 90.0000 154.6233 -32.3018 -83.7474 0.0000 0.0000 -45.6309 0.0000 0.0000 0.0000 104.2979 28.5705 -11.4108 0.0000 -9.0000 0.0000 0.0000 -9.0000 0.0000 0.0000 0.0003 0.0000 -5.9303 -5.1186 20.5898 -10.8000 -18.0000 -9.0000 0.0000 -18.0000 0.0000 0.0000 -18.0000 0.0000 0.0000 0.0000 0.0000 -2.7258 -2.5476 10.1280 -5.4000 -18.0000 -9.0000 0.0000 -18.0000 0.0000 0.0000 -18.0000 0.0000 0.0000 0.0000 0.0000 0.0000 0.0000 0.0000 0.0000 -18.0000 -5.4000 0.0000 -18.0000 0.0000 0.0000 -18.0000 0.0000 0.0000 0.0000 0.0000 1.2310 0.2170 -9.9977 0.0000 -18.0000 1.8000 0.0000 -18.0000 0.0000 0.0000 -18.0000 0.0000 0.0000 0.0000 0.0000 0.0000 0.0000 -90.0001 177.7214 -11.7401 64.9412 0.0000 -0.0001 29.2277 0.0000 0.0000 0.0000 5.9303 -5.1186 -20.5898 10.8000 -18.0000 9.0000 0.0000 -18.0000 0.0000 0.0000 -18.0000 0.0000 0.0000 0.0000 0.0000 2.7258 -2.5476 -10.1280 5.4000 -18.0000 9.0000 0.0000 -18.0000 0.0000 0.0000 -18.0000 0.0000 0.0000 0.0000 0.0000 0.0000 0.0000 0.0000 0.0000 -18.0000 5.4000 0.0000 -18.0000 0.0000 0.0000 -18.0000 0.0000 0.0000 0.0000 0.0000 -1.2310 0.2170 9.9977 0.0000 -18.0000 -1.8000 0.0000 -18.0000 0.0000 0.0000 -18.0000 0.0000 0.0002 0.0000 0.0000 -104.2979 28.5705 11.4108 0.0000 -9.0000 0.0000 0.0000 -9.0000 0.0000 0.0000 0.0004 0.0000 69.0572 -3.6638 -5.3996 0.0029 -0.0358 12.4621 143.8537 87.2210 54.2846 0.0000 9.8023 0.0000 0.0000 0.0000 0.0000 -90.4078 11.9682 5.1585 -0.0179 -0.0828 0.0000 -96.1246 73.5123 -6.5334 0.0000 3.4556 0.0000 0.0000 0.0000 0.0000 
-7.2164 96.3638 -6.8214 9.8263 4.5449 0.5447 0.0000 0.0001 180.0000 0.0000 0.0000 0.0000 0.0000 0.0000 0.0000 24.1722 0.0000 0.0000 0.0000 0.0000 0.0000 0.7983 0.1569 0.3777 0.0000 0.0000 0.0000 0.0000 0.0000 90.0000 155.1601 -32.7335 -83.5042 0.0000 0.0000 -44.6842 0.0000 0.0000 0.0000 104.2979 28.5705 -11.4108 0.0000 -9.0000 0.0000 0.0000 -9.0000 0.0000 0.0000 0.0003 0.0000 -5.9303 -5.1186 20.5898 -10.8000 -18.0000 -9.0000 0.0000 -18.0000 0.0000 0.0000 -18.0000 0.0000 0.0000 0.0000 0.0000 -2.7258 -2.5476 10.1280 -5.4000 -18.0000 -9.0000 0.0000 -18.0000 0.0000 0.0000 -18.0000 0.0000 0.0000 0.0000 0.0000 0.0000 0.0000 0.0000 0.0000 -18.0000 -5.4000 0.0000 -18.0000 0.0000 0.0000 -18.0000 0.0000 0.0000 0.0000 0.0000 1.2310 0.2170 -9.9977 0.0000 -18.0000 1.8000 0.0000 -18.0000 0.0000 0.0000 -18.0000 0.0000 0.0000 0.0000 0.0000 0.0000 0.0000 -90.0001 178.5403 -12.4578 64.4197 0.0000 -0.0001 31.1231 0.0000 0.0000 0.0000 5.9303 -5.1186 -20.5898 10.8000 -18.0000 9.0000 0.0000 -18.0000 0.0000 0.0000 -18.0000 0.0000 0.0000 0.0000 0.0000 2.7258 -2.5476 -10.1280 5.4000 -18.0000 9.0000 0.0000 -18.0000 0.0000 0.0000 -18.0000 0.0000 0.0000 0.0000 0.0000 0.0000 0.0000 0.0000 0.0000 -18.0000 5.4000 0.0000 -18.0000 0.0000 0.0000 -18.0000 0.0000 0.0000 0.0000 0.0000 -1.2310 0.2170 9.9977 0.0000 -18.0000 -1.8000 0.0000 -18.0000 0.0000 0.0000 -18.0000 0.0000 0.0002 0.0000 0.0000 -104.2979 28.5705 11.4108 0.0000 -9.0000 0.0000 0.0000 -9.0000 0.0000 0.0000 0.0004 0.0000 68.6416 -3.4062 -5.4646 0.0031 -0.0372 11.9976 143.1107 86.9007 53.5833 0.0000 9.7210 0.0000 0.0000 0.0000 0.0000 -90.3732 11.5222 5.5877 -0.0179 -0.0828 0.0000 -97.0260 73.5864 -7.4912 0.0000 3.6477 0.0000 0.0000 0.0000 0.0000 
